<svg xmlns="http://www.w3.org/2000/svg" xmlns:xlink="http://www.w3.org/1999/xlink" version="1.1" x="0px" y="0px" viewBox="0 0 100 125" enable-background="new 0 0 100 100" xml:space="preserve"><path fill="#000000" d="M63.387,9.84c3.695,0,6.69,2.997,6.69,6.697v66.93c0,3.698-2.995,6.689-6.69,6.689H36.612  c-3.696,0-6.693-2.991-6.693-6.689v-66.93c0-3.698,2.997-6.697,6.693-6.697H63.387 M63.387,7.478H36.612  c-4.992,0-9.054,4.062-9.054,9.058v66.931c0,4.99,4.062,9.05,9.054,9.05h26.774c4.993,0,9.052-4.063,9.052-9.05v-66.93  C72.438,11.54,68.38,7.478,63.387,7.478L63.387,7.478z"/><g><path fill="#000000" d="M49.998,88.657c-2.494,0-4.525-2.027-4.525-4.528c0-2.495,2.031-4.523,4.525-4.523   c2.499,0,4.526,2.028,4.526,4.523C54.523,86.63,52.496,88.657,49.998,88.657z M49.998,81.968c-1.194,0-2.165,0.967-2.165,2.161   s0.97,2.17,2.165,2.17c1.195,0,2.167-0.976,2.167-2.17S51.192,81.968,49.998,81.968z"/></g><g><path fill="#000000" d="M67.913,77.95H32.087V22.046h35.826V77.95z M34.448,75.588h31.103V24.409H34.448V75.588z"/></g><text x="0" y="115" fill="#000000" font-size="5px" font-weight="bold" font-family="'Helvetica Neue', Helvetica, Arial-Unicode, Arial, Sans-serif">Created by Sherrinford</text><text x="0" y="120" fill="#000000" font-size="5px" font-weight="bold" font-family="'Helvetica Neue', Helvetica, Arial-Unicode, Arial, Sans-serif">from the Noun Project</text></svg>