<svg xmlns="http://www.w3.org/2000/svg" xmlns:xlink="http://www.w3.org/1999/xlink" version="1.1" x="0px" y="0px" viewBox="0 0 100 125" style="enable-background:new 0 0 100 100;" xml:space="preserve"><g style="enable-background:new    ;"><g><g><path d="M66,16H29c-5.523,0-10,4.477-10,10v48c0,5.523,4.477,10,10,10h37c5.523,0,10-4.477,10-10V26C76,20.477,71.523,16,66,16z      M29,19c5,0,37,0,37,0s5.952,0.004,6.985,5.937C72.847,24.366,71.608,20,66,20H29c0,0-4,0-7,5C22,25,24,19,29,19z M72.981,74.258     C72.776,80.019,66,81,66,81s-30,0-36,0s-8-6-8-6c3,5,8,5,8,5h36C72.053,79.135,72.87,75.285,72.981,74.258     C72.984,74.17,73,74.091,73,74C73,74,72.998,74.097,72.981,74.258z"/></g></g></g><g style="enable-background:new    ;"><g><g><path d="M77,52.35V68.65c1.179-0.563,2-1.756,2-3.15v-10C79,54.106,78.179,52.913,77,52.35z"/></g></g></g><g style="enable-background:new    ;"><g><g><path d="M78,32h-1v11h1c1.657,0,3-1.343,3-3v-5C81,33.343,79.657,32,78,32z"/></g></g></g><g style="enable-background:new    ;"><g><g><path d="M63,5H31c0,0-1,5-4,10h40C64,10,63,5,63,5z"/></g></g></g><g style="enable-background:new    ;"><g><g><path d="M27,85c3,5,4,10,4,10h32c0,0,1-5,4-10H27z"/></g></g></g><text x="0" y="115" fill="#000000" font-size="5px" font-weight="bold" font-family="'Helvetica Neue', Helvetica, Arial-Unicode, Arial, Sans-serif">Created by Rabee Balakrishnan</text><text x="0" y="120" fill="#000000" font-size="5px" font-weight="bold" font-family="'Helvetica Neue', Helvetica, Arial-Unicode, Arial, Sans-serif">from the Noun Project</text></svg>