<svg xmlns="http://www.w3.org/2000/svg" xmlns:xlink="http://www.w3.org/1999/xlink" version="1.1" x="0px" y="0px" viewBox="0 0 48 60" enable-background="new 0 0 48 48" xml:space="preserve"><g><g><path fill="none" stroke="#000000" stroke-width="2" stroke-miterlimit="10" d="M22.3,44.2C11,44.2,1.8,35.2,1.8,24    S11,3.8,22.3,3.8"/><path fill="none" stroke="#000000" stroke-width="2" stroke-miterlimit="10" d="M22.3,44.2c-6.3,0-11.4-9-11.4-20.2    S16,3.8,22.3,3.8"/><line fill="none" stroke="#000000" stroke-width="2" stroke-miterlimit="10" x1="22.3" y1="3" x2="22.3" y2="45"/><line fill="none" stroke="#000000" stroke-width="2" stroke-miterlimit="10" x1="22.3" y1="34.3" x2="4.4" y2="34.3"/><line fill="none" stroke="#000000" stroke-width="2" stroke-miterlimit="10" x1="22.3" y1="24" x2="1" y2="24"/><line fill="none" stroke="#000000" stroke-width="2" stroke-miterlimit="10" x1="22.3" y1="13.7" x2="4.4" y2="13.7"/></g><g><path fill="none" stroke="#000000" stroke-width="2" stroke-miterlimit="10" d="M43.5,46.2H25.8c-1.9,0-3.5-1.6-3.5-3.5V5.3    c0-1.9,1.6-3.5,3.5-3.5h17.7c1.9,0,3.5,1.6,3.5,3.5v37.5C47,44.7,45.4,46.2,43.5,46.2z"/><rect x="25.8" y="6.3" fill="none" stroke="#000000" stroke-width="2" stroke-miterlimit="10" width="17.6" height="31.2"/><line fill="none" stroke="#000000" stroke-width="2" stroke-miterlimit="10" x1="32.1" y1="41.9" x2="37.2" y2="41.9"/></g></g><text x="0" y="63" fill="#000000" font-size="5px" font-weight="bold" font-family="'Helvetica Neue', Helvetica, Arial-Unicode, Arial, Sans-serif">Created by Creative Stall</text><text x="0" y="68" fill="#000000" font-size="5px" font-weight="bold" font-family="'Helvetica Neue', Helvetica, Arial-Unicode, Arial, Sans-serif">from the Noun Project</text></svg>